<svg width="43" height="43" viewBox="0 0 43 43" fill="none" xmlns="http://www.w3.org/2000/svg">
<path d="M20.5 4.125H6.20833C5.12537 4.125 4.08675 4.55521 3.32098 5.32098C2.55521 6.08675 2.125 7.12537 2.125 8.20833V36.7917C2.125 37.8746 2.55521 38.9132 3.32098 39.679C4.08675 40.4448 5.12537 40.875 6.20833 40.875H34.7917C35.8746 40.875 36.9132 40.4448 37.679 39.679C38.4448 38.9132 38.875 37.8746 38.875 36.7917V22.5" stroke="#D6C9F4" stroke-width="4" stroke-linecap="round" stroke-linejoin="round"/>
<path d="M33.5157 3.35935C34.3279 2.54712 35.4295 2.09082 36.5782 2.09082C37.7268 2.09082 38.8284 2.54712 39.6407 3.35935C40.4529 4.17157 40.9092 5.27319 40.9092 6.42185C40.9092 7.57051 40.4529 8.67212 39.6407 9.48435L21.2391 27.8879C20.7543 28.3723 20.1554 28.7269 19.4976 28.919L13.6319 30.634C13.4562 30.6852 13.27 30.6883 13.0927 30.6429C12.9154 30.5975 12.7536 30.5052 12.6242 30.3758C12.4948 30.2464 12.4026 30.0846 12.3571 29.9073C12.3117 29.73 12.3148 29.5438 12.366 29.3681L14.081 23.5024C14.274 22.8451 14.6293 22.2469 15.1141 21.7629L33.5157 3.35935Z" stroke="#D6C9F4" stroke-width="4" stroke-linecap="round" stroke-linejoin="round"/>
</svg>
