<svg width="30" height="30" viewBox="0 0 30 30" fill="none" xmlns="http://www.w3.org/2000/svg">
<path d="M13.1103 7.66113L9.05975 0.910547C8.8932 0.632848 8.65757 0.403019 8.3758 0.243448C8.09404 0.0838765 7.77575 3.97574e-06 7.45193 0H0.939218C0.180427 0 -0.263715 0.853711 0.171052 1.47539L6.6908 10.7895C8.43221 9.1623 10.6471 8.04551 13.1103 7.66113ZM29.0608 0H22.5481C21.8895 0 21.2789 0.345703 20.9403 0.910547L16.8897 7.66113C19.3529 8.04551 21.5678 9.1623 23.3092 10.7889L29.8289 1.47539C30.2637 0.853711 29.8196 0 29.0608 0ZM15 9.375C9.30467 9.375 4.68747 13.9922 4.68747 19.6875C4.68747 25.3828 9.30467 30 15 30C20.6953 30 25.3125 25.3828 25.3125 19.6875C25.3125 13.9922 20.6953 9.375 15 9.375ZM20.4211 18.5895L18.1986 20.7551L18.7242 23.8148C18.818 24.3633 18.2402 24.7822 17.7486 24.5232L15 23.0789L12.2519 24.5232C11.7598 24.784 11.1826 24.3627 11.2764 23.8148L11.8019 20.7551L9.57948 18.5895C9.17987 18.2004 9.40077 17.5213 9.95155 17.4416L13.0236 16.9939L14.3965 14.2096C14.5201 13.9588 14.7592 13.8352 14.9988 13.8352C15.2396 13.8352 15.4805 13.9605 15.6041 14.2096L16.977 16.9939L20.049 17.4416C20.5998 17.5213 20.8207 18.2004 20.4211 18.5895Z" fill="#D9D9D9"/>
</svg>
