<svg width="34" height="25" viewBox="0 0 34 25" fill="none" xmlns="http://www.w3.org/2000/svg">
<path d="M10.1181 13.393C9.28715 12.0733 8.79835 10.5091 8.79835 8.79835C8.79835 5.91445 10.0203 3.47046 11.9755 2.00407C11.2423 0.782076 10.0203 0 8.30955 0C5.47453 0 3.91038 2.24847 3.91038 4.88797C3.91038 6.30548 4.39917 7.4786 5.32789 8.35843C5.86557 8.84723 6.30548 9.48266 6.30548 10.167C6.30548 10.8513 6.06108 11.4379 4.44805 12.1222C2.15071 13.1486 0.0488797 14.4684 0 16.6191C0 18.0366 0.928715 19.0631 2.24847 19.0631H4.35029C4.69245 19.0631 5.03461 18.8676 5.18125 18.5743C6.20772 16.7169 8.11403 15.5437 9.72706 14.7617C10.2647 14.5173 10.4603 13.8818 10.1181 13.393Z" fill="#D9D9D9"/>
<path d="M28.7902 12.1222C27.1771 11.4379 26.9327 10.8024 26.9327 10.167C26.9327 9.48266 27.3727 8.84723 27.9103 8.35843C28.8391 7.4786 29.3278 6.30548 29.3278 4.88797C29.3278 2.24847 27.7637 0 24.9287 0C23.2179 0 21.9959 0.782076 21.2627 2.00407C23.2179 3.47046 24.4399 5.86557 24.4399 8.79835C24.4399 10.5091 24 12.0733 23.1201 13.393C22.778 13.8818 22.9735 14.5173 23.5112 14.8106C25.1242 15.5926 27.0305 16.7657 28.057 18.6232C28.2036 18.9164 28.5458 19.112 28.8879 19.112H30.9898C32.3095 19.112 33.2382 18.0855 33.2382 16.668C33.1893 14.5173 31.0875 13.1486 28.7902 12.1222Z" fill="#D9D9D9"/>
<path d="M20.8717 16.8146C19.112 16.0814 18.8676 15.3971 18.8676 14.6639C18.8676 13.9307 19.3564 13.1975 19.943 12.6598C20.9695 11.7311 21.556 10.3625 21.556 8.79834C21.556 5.91444 19.7964 3.42157 16.6681 3.42157C13.5398 3.42157 11.7801 5.91444 11.7801 8.79834C11.7801 10.3625 12.3666 11.6822 13.3931 12.6598C13.9797 13.1975 14.4685 13.9307 14.4685 14.6639C14.4685 15.3971 14.1752 16.0814 12.4644 16.8146C9.8249 17.89 7.38091 19.1608 7.33203 21.5071C7.33203 23.0712 8.45626 24.4398 9.92266 24.4398H16.6192H23.3157C24.7821 24.4398 25.9063 23.0712 25.9063 21.5071C25.8574 19.1608 23.4135 17.89 20.8717 16.8146Z" fill="#D9D9D9"/>
</svg>
