<svg width="48" height="48" viewBox="0 0 48 48" fill="none" xmlns="http://www.w3.org/2000/svg">
<path d="M43.9137 25.6735C43.0175 25.6735 42.2665 25.0029 42.1697 24.1168C41.5883 18.8479 38.7299 14.1059 34.3213 11.0882C33.5219 10.5374 33.3281 9.45966 33.8853 8.66932C34.4424 7.87898 35.5324 7.68739 36.3318 8.23823C41.5883 11.8546 44.9796 17.5068 45.682 23.7575C45.7789 24.7155 45.0765 25.5777 44.1075 25.6735C44.0349 25.6735 43.9864 25.6735 43.9137 25.6735Z" fill="#6C3ED6"/>
<path d="M3.65493 25.7926C3.60649 25.7926 3.53382 25.7926 3.48537 25.7926C2.51643 25.6968 1.81395 24.8346 1.91085 23.8766C2.56488 17.6257 5.90771 11.9736 11.1157 8.33324C11.8909 7.7824 13.0052 7.974 13.5623 8.74039C14.1194 9.53073 13.9257 10.6085 13.1505 11.1593C8.79029 14.2249 5.95615 18.9669 5.42324 24.2119C5.32635 25.122 4.5512 25.7926 3.65493 25.7926Z" fill="#6C3ED6"/>
<path d="M33.3317 45.7166C30.3522 47.1297 27.1547 47.8481 23.8119 47.8481C20.3237 47.8481 17.0051 47.0818 13.9045 45.525C13.0325 45.1179 12.6933 44.0641 13.1294 43.2019C13.5412 42.3397 14.607 42.0044 15.479 42.4116C17.0051 43.178 18.6281 43.7048 20.2753 44.0162C22.5038 44.4473 24.7808 44.4712 27.0094 44.088C28.6566 43.8006 30.2796 43.2977 31.7814 42.5792C32.6777 42.1721 33.7435 42.5074 34.1311 43.3935C34.5671 44.2557 34.228 45.3095 33.3317 45.7166Z" fill="#6C3ED6"/>
<path d="M23.7874 0C20.0328 0 16.9564 3.01766 16.9564 6.75381C16.9564 10.49 20.0086 13.5076 23.7874 13.5076C27.5663 13.5076 30.6184 10.49 30.6184 6.75381C30.6184 3.01766 27.5663 0 23.7874 0Z" fill="#6C3ED6"/>
<path d="M6.831 28.4028C3.07637 28.4028 0 31.4205 0 35.1566C0 38.8928 3.05215 41.9105 6.831 41.9105C10.6098 41.9105 13.662 38.8928 13.662 35.1566C13.662 31.4205 10.5856 28.4028 6.831 28.4028Z" fill="#6C3ED6"/>
<path d="M40.5024 28.4028C36.7478 28.4028 33.6714 31.4205 33.6714 35.1566C33.6714 38.8928 36.7236 41.9105 40.5024 41.9105C44.2813 41.9105 47.3334 38.8928 47.3334 35.1566C47.3334 31.4205 44.2813 28.4028 40.5024 28.4028Z" fill="#6C3ED6"/>
</svg>
